<svg xmlns="http://www.w3.org/2000/svg" viewBox="0 0 560 600" role="img" aria-labelledby="title desc">
  <title id="title">Портрет автора курсу</title>
  <desc id="desc">Абстрактне зображення усміхненого тренера на теплому фоні.</desc>
  <defs>
    <linearGradient id="bg" x1="0%" y1="0%" x2="100%" y2="100%">
      <stop offset="0%" stop-color="#ffe6db" />
      <stop offset="100%" stop-color="#f8b59f" />
    </linearGradient>
    <linearGradient id="shirt" x1="0%" y1="0%" x2="100%" y2="100%">
      <stop offset="0%" stop-color="#ef3b24" />
      <stop offset="100%" stop-color="#f26d3d" />
    </linearGradient>
  </defs>
  <rect width="560" height="600" rx="40" fill="url(#bg)" />
  <circle cx="280" cy="220" r="120" fill="#fdf3ef" />
  <path d="M280 160c32 0 60 26 60 60s-28 60-60 60-60-26-60-60 28-60 60-60z" fill="#fbd1c0" />
  <path d="M220 360h120c60 0 108 48 108 108v52H112v-52c0-60 48-108 108-108z" fill="url(#shirt)" />
  <path d="M220 360c0 0 28 40 60 40s60-40 60-40" fill="none" stroke="#fff" stroke-width="12" stroke-linecap="round" />
  <path d="M244 210c12-20 32-20 44 0" stroke="#8c442c" stroke-width="10" stroke-linecap="round" fill="none" />
  <path d="M312 210c12-20 32-20 44 0" stroke="#8c442c" stroke-width="10" stroke-linecap="round" fill="none" />
  <path d="M252 252c20 24 68 24 88 0" stroke="#8c442c" stroke-width="12" stroke-linecap="round" fill="none" />
</svg>
